<svg width="18" height="19" fill="none" xmlns="http://www.w3.org/2000/svg"><path d="M15.438 0H2.563C1.108 0 0 1.17 0 2.704v13.592C0 17.831 1.108 19 2.562 19h12.877C16.892 19 18 17.83 18 16.296V2.704C18 1.169 16.892 0 15.438 0zM9 15.2c2.977 0 5.4-2.485 5.4-5.48 0-.512-.07-1.097-.208-1.535h1.523v7.746c0 .365-.277.73-.692.73H2.977a.713.713 0 01-.692-.73V8.11h1.592a5.851 5.851 0 00-.208 1.535C3.6 12.716 6.023 15.2 9 15.2zm0-2.192c-1.938 0-3.462-1.608-3.462-3.581 0-1.973 1.524-3.58 3.462-3.58 1.938 0 3.461 1.607 3.461 3.58 0 2.046-1.523 3.58-3.461 3.58zm6.646-7.82c0 .439-.346.804-.761.804h-1.939c-.415 0-.761-.365-.761-.804V3.215c0-.438.346-.803.761-.803h1.939c.415 0 .761.365.761.803v1.973z" fill="#080808"/></svg>