<svg width="21" height="13" fill="none" xmlns="http://www.w3.org/2000/svg"><path d="M20.805 11.267c0-.082-.084-.082-.084-.164-.334-.658-1.086-1.48-2.088-2.384-.502-.41-.752-.74-.92-.904-.25-.329-.25-.575-.167-.904.084-.247.418-.658 1.003-1.397.334-.411.501-.658.752-.904 1.253-1.644 1.838-2.713 1.671-3.206l-.084-.082c-.083-.082-.167-.164-.334-.164-.167-.083-.417-.083-.668 0h-3.76l-.084.082c-.083.082-.083.082-.083.164-.334.904-.752 1.644-1.17 2.466-.25.41-.501.822-.752 1.15-.25.33-.418.576-.585.74-.167.165-.334.247-.418.411-.083.082-.25.165-.25.082-.084 0-.167 0-.167-.082l-.251-.246c-.084-.083-.084-.247-.167-.411v-4.11c0-.082-.084-.246-.084-.329l-.25-.246c-.084-.082-.251-.082-.335-.165A7.611 7.611 0 0010.027.5C8.69.5 7.77.582 7.437.747c-.168.082-.335.164-.418.328-.168.165-.168.247-.084.247.418.082.752.246.92.493l.083.164c.083.083.083.247.167.494.083.246.083.493.083.822V4.61c0 .41-.083.657-.083.904 0 .246-.084.41-.167.493-.084.164-.084.246-.167.246 0 0 0 .083-.084.083s-.167.082-.334.082c-.084 0-.25-.082-.334-.165a.999.999 0 01-.418-.41c-.167-.165-.334-.412-.502-.74-.167-.329-.417-.658-.584-1.151l-.168-.329c-.083-.164-.25-.493-.417-.904-.167-.41-.335-.74-.502-1.15a1.137 1.137 0 00-.25-.33h-.084s-.083-.081-.167-.081-.167-.083-.25-.083H.667c-.334 0-.5.083-.584.165L0 1.322v.164c0 .082 0 .165.084.33.417.985.919 1.972 1.42 2.958.501.904 1.003 1.726 1.337 2.301.418.576.752 1.151 1.17 1.644.417.493.668.822.752.986l.334.33.25.246c.168.164.418.41.752.657.335.247.752.493 1.17.74.418.247.92.411 1.42.575.585.165 1.087.247 1.588.165h1.253a.762.762 0 00.585-.247l.084-.082c0-.082.083-.082.083-.164v-.33c0-.328 0-.574.084-.821s.084-.411.167-.575c.084-.165.167-.247.25-.33l.168-.164h.083c.167-.082.418 0 .585.165.251.164.502.41.669.657.167.247.418.494.752.822.334.33.585.576.752.658l.25.164c.167.082.335.165.585.247.25.082.418.082.585.082l2.841-.082c.25 0 .501-.082.668-.165.168-.082.251-.164.251-.328v-.33c-.167-.164-.167-.246-.167-.328z" fill="#080808"/></svg>